<svg xmlns="http://www.w3.org/2000/svg" viewBox="0 0 100 100">
  <rect width="100" height="100" rx="20" fill="#24292e"/>
  
  <g transform="translate(15, 15) scale(0.7)">
    <path d="M50 0C22.4 0 0 22.4 0 50c0 22.1 14.3 40.8 34.1 47.4 2.5.5 3.4-1.1 3.4-2.4 0-1.2 0-4.3-.1-8.4-13.9 3-16.8-5.9-16.8-5.9-2.3-5.8-5.6-7.3-5.6-7.3-4.5-3.1.3-3 .3-3 5 .4 7.6 5.1 7.6 5.1 4.5 7.7 11.7 5.5 14.5 4.2 1.2 8.2 4.5 8.2 10 0 7.3-.7 13.2-.7 15 0 2.3 1.5 2.8 3.4 2.2C35.7 90.8 50 68.1 50 50c0-27.6-22.4-50-50-50z" fill="#fff" fill-rule="evenodd"/>
    <path d="M20.3 72.4c-.1.3-.5.4-.9.2-.4-.1-.6-.5-.5-.8.1-.3.5-.4.9-.2.4.1.6.5.5.8zm.8.9c-.3.2-.7.1-1-.2-.3-.3-.4-.7-.2-1 .2-.3.7-.1 1 .2.3.3.4.7.2 1zm.9 1.1c-.3.3-.8.2-1.2 0-.4-.3-.6-.8-.3-1.1.3-.3.8-.2 1.2 0 .4.3.6.8.3 1.1zm1.2 1c-.1.4-.6.5-1.1.3-.5-.2-.8-.7-.6-1.1.1-.4.6-.5 1.1-.3.5.2.8.7.6 1.1zm1.6.4c0 .4-.4.8-1 .8-.5 0-1-.4-1-.8 0-.5.4-.8 1-.8.5 0 1 .3 1 .8zm1.1.7c.1.4-.2.9-.7 1.1-.5.2-1 .1-1.1-.3-.1-.4.2-.9.7-1.1.5-.2 1-.1 1.1.3z" fill="#fff"/>
  </g>
</svg>
